<svg xmlns="http://www.w3.org/2000/svg" viewBox="0 0 50 50" fill="white">
    <path d="M38,45H12c-0.552,0-1-0.447-1-1V29.414l-2.293,2.293c-0.196,0.195-0.463,0.311-0.74,0.292 C7.69,31.99,7.43,31.867,7.248,31.658l-7-8c-0.339-0.387-0.329-0.968,0.023-1.343l15-16c0.297-0.317,0.765-0.405,1.159-0.219 C16.469,6.116,20.497,8,25,8c4.521,0,8.53-1.884,8.57-1.903c0.38-0.183,0.838-0.104,1.137,0.196l15,15 c0.391,0.391,0.391,1.023,0,1.414l-8,8c-0.391,0.391-1.023,0.391-1.414,0L39,29.414V44C39,44.553,38.553,45,38,45z"></path>
</svg>
