<svg width="10" height="2" xmlns="http://www.w3.org/2000/svg">
  <g transform="translate(0,0) scale(0.1)" fill="none" stroke-linecap="square">
    <!-- cursor -->
    <path stroke="#000000" stroke-width="2" d="M1 3V1H3M9 7V9H7M1 7V9H3M9 3V1H7"/>
    <path stroke="#FFFFFF" stroke-width="1" d="M1 3V1H3M9 7V9H7M1 7V9H3M9 3V1H7"/>
  </g>
  <g transform="translate(1,0) scale(0.0625)">
    <!-- grass -->
    <path fill="#1F9D06" d="M0 0 v2 l1 -1 l1 3 l1-1 l1 1 l1 -4 l1 2 l1 -1 l1 4 l1 -3 l1 2 l1 -3 l1 4 l1 -2 l1 1 l1 -4 L16 2 V0 z"/>
  </g>
  <g transform="translate(2,0) scale(0.0625)">
    <!-- rose -->
    <path d="M7 16V8h2V16z" fill="#92B344"/>
    <path d="M4 6a4 6 0 0 0 8 0z" fill="#D03434"/>
  </g>
  <g transform="translate(3,0) scale(0.0625)">
    <!-- goldenrod -->
    <path d="M7 16V8h2V16z" fill="#92B344"/>
    <path d="M6 12L8 2L10 12z" fill="#D0AE34"/>
  </g>
  <g transform="translate(4,0) scale(0.0625)">
    <!-- myosotis -->
    <path d="M7 16V8h2V16z" fill="#92B344"/>
    <path d="M5 12L11 12L13 7L8 3L3 7z" fill="#0077FF"/>
  </g>
  <g transform="translate(5,0) scale(0.0625)">
    <!-- tall grass -->
    <path fill="#1F9D06" d="M4 16l2 -7l2 7zM7 16l2 -15l2 15zM10 16l2 -10l2 10zM0 16l2 -8l2 8zM12 16l2 -14l2 14zM2 16l2 -11l2 11z"/>
  </g>
  <g transform="translate(6,0) scale(0.5)">
    <!-- dirt slab -->
    <path fill="#866247" d="M0 1H2v1H0z"/>
  </g>
  <g transform="translate(7,0) scale(0.0625)">
    <!-- oak sapling -->
    <path d="M7 16H9L8 2z" fill="#74674F"/>
    <circle cx="8" cy="6" r="4" fill="#82B53C"/>
  </g>
  <g transform="translate(8,0) scale(0.0625)">
    <!-- pine sapling -->
    <path d="M7 16H9L8 2z" fill="#4E342E"/>
    <path d="M6 10H10L8 2z" fill="#406609"/>
  </g>
  <g transform="translate(9,0) scale(0.0625)">
    <!-- palm sapling -->
    <path d="M7.5 16H8.5V4H7.5z" fill="#D1BE94"/>
    <path d="M4 6H12L8 2z" fill="#99D42A"/>
  </g>
  <g transform="translate(0,1) scale(0.0625)">
    <!-- autumn sapling -->
    <path d="M7 16H9L8 2z" fill="#9E715C"/>
    <circle cx="8" cy="6" r="4" fill="#D84830"/>
  </g>
  <g transform="translate(1,1) scale(0.0625)">
    <!-- fly -->
    <circle cx="8" cy="8" r="4" fill="#C2185B"/>
  </g>
  <g transform="translate(2,1) scale(0.0625)">
    <!-- block eater -->
    <circle cx="8" cy="8" r="4" fill="#880E4F"/>
  </g>
  <g transform="translate(3,1) scale(0.0625)">
    <!-- virus -->
    <circle cx="8" cy="8" r="4" fill="#7B1FA2"/>
  </g>
</svg>
